<svg xmlns="http://www.w3.org/2000/svg" version="1.1" xmlns:xlink="http://www.w3.org/1999/xlink" xmlns:svgjs="http://svgjs.dev/svgjs" width="1900" height="560" preserveAspectRatio="none" viewBox="0 0 1900 560"><g mask="url(&quot;#SvgjsMask1069&quot;)" fill="none"><rect width="1900" height="560" x="0" y="0" fill="#0e2a47"></rect><path d="M0,677.793C163.936,721.501,342.759,846.502,491.134,764.22C637.491,683.057,630.667,468.702,670.261,306.098C703.12,171.155,733.718,34.265,701.792,-100.902C671.444,-229.387,568.753,-319.699,496.372,-430.108C410.776,-560.676,379.885,-744.878,237.556,-809.043C94.206,-873.669,-75.815,-813.333,-221.291,-753.648C-357.118,-697.922,-446.727,-579.478,-557.325,-482.925C-688.417,-368.481,-903.99,-305.764,-931.208,-133.887C-958.359,37.567,-796.808,180.751,-683.21,312.012C-592.77,416.514,-469.288,475.409,-347.448,540.64C-235.408,600.625,-122.797,645.053,0,677.793" fill="#0b2239"></path><path d="M1900 1207.367C2020.455 1191.8029999999999 2053.869 1024.0720000000001 2156.4139999999998 958.9870000000001 2259.908 893.3 2433.358 937.889 2493.165 830.889 2551.799 725.987 2436.43 604.268 2421.319 485.046 2405.841 362.932 2469.236 227.777 2403.5280000000002 123.69099999999997 2336.504 17.519999999999982 2205.85-47.222999999999956 2080.522-54.799999999999955 1961.941-61.96900000000005 1874.57 51.726 1760.473 84.81400000000002 1645.795 118.07 1501.296 57.485000000000014 1413.662 138.586 1326.473 219.27499999999998 1353.4769999999999 361.416 1334.813 478.738 1315.828 598.078 1251.441 723.356 1303.271 832.517 1355.04 941.55 1494.939 967.047 1597.145 1031.251 1698.077 1094.654 1781.789 1222.641 1900 1207.367" fill="#113255"></path></g><defs><mask id="SvgjsMask1069"><rect width="1900" height="560" fill="#ffffff"></rect></mask></defs></svg>