<?xml version="1.0" standalone="no"?>
<svg xmlns:xlink="http://www.w3.org/1999/xlink" id="wave" style="transform:rotate(0deg); transition: 0.3s" viewBox="0 0 1440 220" version="1.1" xmlns="http://www.w3.org/2000/svg"><defs><linearGradient id="sw-gradient-0" x1="0" x2="0" y1="1" y2="0"><stop stop-color="rgba(246.263, 246.263, 246.263, 1)" offset="0%"/><stop stop-color="rgba(255, 255, 255, 1)" offset="100%"/></linearGradient></defs><path style="transform:translate(0, 0px); opacity:1" fill="url(#sw-gradient-0)" d="M0,88L48,77C96,66,192,44,288,58.7C384,73,480,125,576,128.3C672,132,768,88,864,91.7C960,95,1056,147,1152,143C1248,139,1344,81,1440,73.3C1536,66,1632,110,1728,139.3C1824,169,1920,183,2016,172.3C2112,161,2208,125,2304,121C2400,117,2496,147,2592,150.3C2688,154,2784,132,2880,124.7C2976,117,3072,125,3168,128.3C3264,132,3360,132,3456,132C3552,132,3648,132,3744,135.7C3840,139,3936,147,4032,146.7C4128,147,4224,139,4320,135.7C4416,132,4512,132,4608,135.7C4704,139,4800,147,4896,132C4992,117,5088,81,5184,55C5280,29,5376,15,5472,36.7C5568,59,5664,117,5760,143C5856,169,5952,161,6048,139.3C6144,117,6240,81,6336,69.7C6432,59,6528,73,6624,84.3C6720,95,6816,103,6864,106.3L6912,110L6912,220L6864,220C6816,220,6720,220,6624,220C6528,220,6432,220,6336,220C6240,220,6144,220,6048,220C5952,220,5856,220,5760,220C5664,220,5568,220,5472,220C5376,220,5280,220,5184,220C5088,220,4992,220,4896,220C4800,220,4704,220,4608,220C4512,220,4416,220,4320,220C4224,220,4128,220,4032,220C3936,220,3840,220,3744,220C3648,220,3552,220,3456,220C3360,220,3264,220,3168,220C3072,220,2976,220,2880,220C2784,220,2688,220,2592,220C2496,220,2400,220,2304,220C2208,220,2112,220,2016,220C1920,220,1824,220,1728,220C1632,220,1536,220,1440,220C1344,220,1248,220,1152,220C1056,220,960,220,864,220C768,220,672,220,576,220C480,220,384,220,288,220C192,220,96,220,48,220L0,220Z"/></svg>